<?xml version="1.0" standalone="no"?>
<!DOCTYPE svg PUBLIC "-//W3C//DTD SVG 20010904//EN"
 "http://www.w3.org/TR/2001/REC-SVG-20010904/DTD/svg10.dtd">
<svg version="1.0" xmlns="http://www.w3.org/2000/svg"
 width="299.000000pt" height="169.000000pt" viewBox="0 0 299.000000 169.000000"
 preserveAspectRatio="xMidYMid meet">

<g transform="translate(0.000000,169.000000) scale(0.100000,-0.100000)"
fill="#000000" stroke="none">
<path d="M1064 1514 c4 -26 1 -32 -22 -42 l-27 -12 26 5 c20 4 28 -1 37 -23
l12 -27 -5 27 c-4 22 0 28 23 37 26 10 26 10 2 8 -19 -1 -28 5 -38 28 l-12 30
4 -31z"/>
<path d="M1680 1371 c0 -33 3 -61 8 -61 11 1 78 39 69 40 -4 0 -21 -7 -37 -15
l-30 -16 0 46 c0 25 3 45 6 45 9 0 68 -42 76 -55 5 -7 8 -6 8 1 0 7 -11 19
-25 28 -14 9 -36 23 -50 32 l-25 16 0 -61z"/>
<path d="M1866 1394 c-23 -23 -19 -30 4 -9 19 17 22 17 36 3 21 -21 8 -41 -22
-35 -13 2 -21 0 -18 -4 12 -20 64 -1 64 22 0 10 -30 39 -40 39 -5 0 -16 -7
-24 -16z"/>
<path d="M1290 1335 c-18 -22 -1 -50 31 -50 20 0 24 5 24 30 0 23 -5 31 -21
33 -11 2 -27 -4 -34 -13z m48 -18 c4 -20 -25 -34 -40 -19 -15 15 -1 44 19 40
10 -2 19 -11 21 -21z"/>
<path d="M1406 1195 c-21 -7 -55 -26 -75 -42 -41 -33 -92 -124 -90 -162 1 -20
3 -18 10 12 12 52 33 89 70 126 44 45 82 62 158 71 63 7 64 7 16 8 -27 1 -67
-5 -89 -13z"/>
<path d="M1590 1179 c81 -36 134 -105 148 -192 7 -42 8 -42 55 -45 27 -2 50
-9 52 -15 3 -7 9 -50 14 -97 6 -61 8 -71 9 -35 0 28 -3 73 -6 100 l-7 50 -50
5 c-48 5 -49 6 -57 43 -11 51 -34 95 -72 135 -31 34 -94 72 -118 72 -7 0 7
-10 32 -21z"/>
<path d="M670 1145 c-4 -24 -11 -31 -35 -36 l-30 -7 32 -1 c27 -1 32 -5 36
-28 l4 -28 2 27 c1 21 7 28 29 31 l27 4 -27 2 c-22 1 -27 6 -30 34 l-4 32 -4
-30z"/>
<path d="M1526 1104 c41 -10 74 -26 98 -47 37 -33 69 -85 60 -99 -3 -4 -90 -8
-195 -8 -171 0 -189 2 -189 17 0 42 74 114 136 133 17 5 22 9 11 9 -55 3 -162
-96 -155 -144 3 -19 10 -20 192 -23 207 -3 222 1 205 46 -25 67 -129 134 -203
131 -12 0 7 -7 40 -15z"/>
<path d="M876 1061 c-3 -4 1 -17 10 -27 14 -18 14 -18 4 5 -12 23 -11 23 39
20 28 -2 51 -1 51 4 0 10 -98 9 -104 -2z"/>
<path d="M950 1010 c-14 -35 -18 -36 -37 -12 -13 15 -13 15 -3 -5 5 -12 14
-24 18 -27 9 -5 46 63 39 71 -2 2 -10 -10 -17 -27z"/>
<path d="M2220 1005 c-8 -22 -13 -23 -35 -15 -14 5 -25 6 -25 1 0 -5 11 -12
25 -15 22 -6 23 -9 14 -33 -5 -14 -7 -28 -5 -31 3 -3 10 8 16 23 9 23 14 26
36 21 17 -5 23 -3 19 4 -3 5 -13 10 -22 10 -12 0 -14 7 -9 30 7 36 -1 39 -14
5z"/>
<path d="M1188 953 c-32 -3 -51 -10 -57 -21 -5 -9 -12 -61 -16 -114 l-7 -98
24 1 c18 1 19 2 5 6 -17 4 -18 13 -12 91 9 125 8 122 66 122 27 0 49 5 49 10
0 6 -1 9 -2 8 -2 -1 -24 -3 -50 -5z"/>
<path d="M510 861 c-17 -32 -11 -60 15 -77 52 -34 111 31 70 76 -23 26 -71 26
-85 1z m78 -3 c18 -18 15 -43 -8 -63 -17 -15 -24 -16 -45 -7 -43 20 -28 82 20
82 12 0 26 -5 33 -12z"/>
<path d="M1873 690 c0 -30 2 -43 4 -27 2 15 2 39 0 55 -2 15 -4 2 -4 -28z"/>
<path d="M1050 710 c0 -5 7 -7 15 -4 8 4 15 8 15 10 0 2 -7 4 -15 4 -8 0 -15
-4 -15 -10z"/>
<path d="M1241 644 c0 -11 3 -14 6 -6 3 7 2 16 -1 19 -3 4 -6 -2 -5 -13z"/>
<path d="M1128 640 c17 -8 22 -18 24 -52 l1 -43 4 38 c5 41 -10 67 -36 66 -11
0 -9 -3 7 -9z"/>
<path d="M1883 580 c0 -30 2 -43 4 -27 2 15 2 39 0 55 -2 15 -4 2 -4 -28z"/>
<path d="M981 604 c0 -11 3 -14 6 -6 3 7 2 16 -1 19 -3 4 -6 -2 -5 -13z"/>
<path d="M1082 590 c0 -14 2 -19 5 -12 2 6 2 18 0 25 -3 6 -5 1 -5 -13z"/>
<path d="M1251 574 c0 -11 3 -14 6 -6 3 7 2 16 -1 19 -3 4 -6 -2 -5 -13z"/>
<path d="M1362 563 c2 -10 10 -18 18 -18 8 0 16 8 18 18 2 12 -3 17 -18 17
-15 0 -20 -5 -18 -17z"/>
<path d="M1622 563 c2 -10 10 -18 18 -18 8 0 16 8 18 18 2 12 -3 17 -18 17
-15 0 -20 -5 -18 -17z"/>
<path d="M1090 551 c0 -6 4 -13 10 -16 6 -3 7 1 4 9 -7 18 -14 21 -14 7z"/>
<path d="M991 534 c0 -11 3 -14 6 -6 3 7 2 16 -1 19 -3 4 -6 -2 -5 -13z"/>
<path d="M294 525 c-7 -18 3 -35 21 -35 18 0 26 25 12 39 -15 15 -27 14 -33
-4z"/>
<path d="M434 525 c-13 -32 7 -35 231 -35 180 0 224 3 228 14 12 32 -15 36
-235 36 -182 0 -220 -2 -224 -15z"/>
<path d="M131 521 c-22 -14 -3 -31 35 -31 28 0 35 4 32 18 -4 19 -45 27 -67
13z"/>
<path d="M2100 511 c0 -19 10 -20 218 -23 119 -2 223 -2 230 0 6 2 12 13 12
23 0 18 -11 19 -230 19 -221 0 -230 -1 -230 -19z"/>
<path d="M2660 511 c0 -27 19 -36 37 -18 18 18 9 37 -18 37 -12 0 -19 -7 -19
-19z"/>
<path d="M1893 470 c0 -30 2 -43 4 -27 2 15 2 39 0 55 -2 15 -4 2 -4 -28z"/>
<path d="M2795 510 c-11 -18 10 -32 41 -28 40 4 38 32 -3 36 -17 2 -34 -2 -38
-8z"/>
<path d="M1168 463 c7 -3 16 -2 19 1 4 3 -2 6 -13 5 -11 0 -14 -3 -6 -6z"/>
<path d="M1463 460 c-13 -5 -23 -16 -23 -25 0 -13 8 -15 50 -9 38 5 56 3 75
-10 27 -18 45 -14 45 8 0 33 -97 56 -147 36z"/>
<path d="M1086 452 c-2 -4 -8 -51 -12 -105 l-7 -97 424 2 424 3 1 23 c1 18 1
19 -3 2 -4 -20 -12 -20 -419 -20 l-414 0 0 28 c0 85 14 161 29 165 14 4 14 5
-1 6 -9 0 -19 -3 -22 -7z"/>
<path d="M1903 360 c0 -30 2 -43 4 -27 2 15 2 39 0 55 -2 15 -4 2 -4 -28z"/>
<path d="M408 389 c-10 -5 -18 -18 -18 -27 0 -13 3 -12 16 6 18 26 41 28 66 5
10 -9 18 -11 18 -5 0 13 -32 32 -52 32 -7 0 -21 -5 -30 -11z"/>
<path d="M670 349 c0 -17 5 -20 32 -17 22 2 34 9 36 21 3 14 -4 17 -32 17 -30
0 -36 -4 -36 -21z"/>
<path d="M810 350 c0 -19 7 -20 109 -20 79 0 112 4 120 13 6 8 8 17 4 20 -3 4
-57 7 -120 7 -106 0 -113 -1 -113 -20z"/>
<path d="M1957 363 c-4 -3 -7 -12 -7 -20 0 -10 26 -13 114 -13 111 0 148 10
115 31 -16 10 -212 12 -222 2z"/>
<path d="M2257 363 c-18 -17 -5 -33 26 -33 40 0 51 8 36 27 -12 14 -51 18 -62
6z"/>
<path d="M392 325 c7 -41 83 -45 97 -4 3 9 -1 8 -13 -4 -24 -23 -52 -21 -71 6
-15 20 -16 20 -13 2z"/>
<path d="M345 181 c-10 -17 4 -31 31 -31 19 0 25 5 22 18 -4 19 -43 29 -53 13z"/>
<path d="M517 184 c-4 -4 -7 -13 -7 -21 0 -11 23 -13 113 -11 92 2 112 6 112
18 0 12 -20 16 -106 18 -58 1 -108 -1 -112 -4z"/>
<path d="M2257 174 c-17 -18 14 -24 114 -24 90 0 109 3 109 15 0 12 -19 15
-108 15 -60 0 -112 -3 -115 -6z"/>
<path d="M2590 165 c0 -10 10 -15 30 -15 20 0 30 5 30 15 0 10 -10 15 -30 15
-20 0 -30 -5 -30 -15z"/>
</g>
</svg>
