<?xml version="1.0" standalone="no"?>
<!DOCTYPE svg PUBLIC "-//W3C//DTD SVG 20010904//EN"
 "http://www.w3.org/TR/2001/REC-SVG-20010904/DTD/svg10.dtd">
<svg version="1.0" xmlns="http://www.w3.org/2000/svg"
 width="800.000000pt" height="600.000000pt" viewBox="0 0 800.000000 600.000000"
 preserveAspectRatio="xMidYMid meet">

<g transform="translate(0.000000,600.000000) scale(0.100000,-0.100000)"
fill="#000000" stroke="none">
<path d="M4654 4550 c-36 -14 -74 -68 -74 -106 0 -128 170 -173 224 -60 21 45
20 74 -4 113 -32 53 -93 75 -146 53z m91 -16 c33 -15 65 -64 65 -99 0 -25 -27
-72 -52 -89 -12 -9 -40 -16 -61 -16 -51 0 -107 52 -107 99 0 46 26 90 63 106
41 18 52 18 92 -1z"/>
<path d="M4672 4478 c-16 -16 -15 -60 2 -84 24 -32 51 -7 51 47 0 36 -3 44
-20 47 -11 1 -26 -3 -33 -10z m43 -42 c0 -44 -18 -58 -35 -27 -14 28 -2 73 19
69 11 -2 16 -14 16 -42z"/>
<path d="M3060 4360 c-43 -43 -17 -73 105 -125 50 -21 91 -39 92 -40 1 0 49
-232 108 -514 58 -283 111 -522 118 -530 31 -41 23 -40 593 -41 415 0 553 3
562 12 7 7 12 24 12 38 0 14 -5 31 -12 38 -9 9 -142 12 -539 12 l-527 0 -11
50 c-6 28 -11 53 -11 55 0 3 247 5 549 5 l548 0 27 26 c14 15 26 29 26 33 0 3
29 146 64 316 64 305 65 311 48 345 -9 19 -28 40 -42 47 -19 10 -183 13 -702
13 l-678 0 -6 28 c-17 79 -35 130 -51 144 -19 16 -224 108 -242 108 -6 0 -20
-9 -31 -20z m190 -68 c36 -16 70 -35 76 -43 7 -8 19 -49 29 -91 l17 -78 693
-2 c665 -3 694 -4 714 -22 13 -12 21 -31 21 -51 0 -17 -27 -162 -60 -321 -33
-159 -60 -292 -60 -296 0 -5 -9 -17 -20 -28 -20 -20 -33 -20 -579 -20 l-558 0
15 -75 15 -75 536 -2 536 -3 0 -25 0 -25 -535 -3 c-294 -1 -545 0 -557 3 -12
3 -27 14 -33 24 -5 11 -58 251 -116 533 -58 282 -106 514 -108 515 -1 1 -47
22 -101 46 -108 48 -132 69 -101 92 20 15 38 10 176 -53z"/>
<path d="M3390 3997 c0 -8 27 -144 60 -303 33 -159 60 -290 60 -291 0 -2 249
-3 553 -3 l552 0 59 287 c33 159 61 296 64 305 4 17 -33 18 -672 18 -555 0
-676 -2 -676 -13z m1316 -39 c-3 -18 -29 -147 -58 -285 l-51 -253 -533 0
c-499 0 -533 1 -538 18 -3 9 -28 130 -56 267 -28 138 -53 258 -56 268 -5 16
30 17 647 17 l652 0 -7 -32z"/>
<path d="M3714 3845 c-15 -23 -15 -27 0 -50 l16 -25 333 0 c246 0 336 3 345
12 19 19 15 66 -7 78 -13 6 -140 10 -345 10 l-326 0 -16 -25z m677 5 c21 -12
25 -40 7 -58 -9 -9 -97 -12 -333 -12 -331 0 -345 2 -345 40 0 38 15 40 338 40
197 0 321 -4 333 -10z"/>
<path d="M3752 3628 c-7 -7 -12 -21 -12 -33 0 -44 9 -45 327 -45 l303 0 11 24
c8 17 8 29 0 45 -12 21 -16 21 -314 21 -222 0 -306 -3 -315 -12z m617 -17 c7
-13 7 -23 -2 -35 -11 -15 -42 -16 -306 -14 -262 3 -295 5 -304 20 -8 12 -7 21
2 32 12 14 51 16 307 16 276 0 294 -1 303 -19z"/>
<path d="M4990 4336 c0 -2 8 -10 18 -17 15 -13 16 -12 3 4 -13 16 -21 21 -21
13z"/>
<path d="M5111 4104 c0 -11 3 -14 6 -6 3 7 2 16 -1 19 -3 4 -6 -2 -5 -13z"/>
<path d="M5034 3898 l-19 -23 23 19 c21 18 27 26 19 26 -2 0 -12 -10 -23 -22z"/>
<path d="M2905 3370 c10 -11 20 -20 23 -20 3 0 -3 9 -13 20 -10 11 -20 20 -23
20 -3 0 3 -9 13 -20z"/>
<path d="M3710 3028 c-50 -34 -72 -71 -77 -125 -11 -134 146 -220 253 -138 91
70 84 195 -15 262 -46 31 -116 31 -161 1z m149 -6 c109 -55 106 -209 -4 -262
-130 -63 -260 71 -193 199 39 75 123 102 197 63z"/>
<path d="M3763 2960 c-44 -18 -57 -86 -23 -120 43 -43 123 -12 123 49 0 52
-53 90 -100 71z m71 -26 c36 -35 7 -104 -42 -104 -54 0 -81 62 -45 102 20 22
66 24 87 2z"/>
<path d="M4262 3033 c-101 -49 -117 -180 -33 -256 69 -62 156 -60 218 5 124
130 -24 331 -185 251z m146 -13 c65 -40 92 -132 57 -200 -52 -101 -208 -100
-261 2 -21 41 -15 129 12 159 53 60 132 76 192 39z"/>
<path d="M4305 2958 c-48 -28 -57 -70 -24 -112 15 -19 30 -26 54 -26 24 0 39
7 54 26 12 15 21 33 21 40 0 26 -23 62 -47 73 -29 13 -33 13 -58 -1z m81 -33
c34 -52 -14 -110 -74 -89 -64 23 -46 114 23 114 26 0 39 -6 51 -25z"/>
<path d="M4775 2865 c-21 -31 -36 -57 -34 -59 10 -9 139 -14 139 -6 0 14 -53
120 -60 120 -4 0 -24 -25 -45 -55z m55 21 c0 -2 7 -20 15 -40 l15 -36 -45 0
c-51 0 -54 8 -23 50 19 26 38 39 38 26z"/>
<path d="M2900 1810 c0 -63 3 -80 14 -80 11 0 16 15 18 52 l3 52 40 -52 c56
-74 67 -69 63 25 -2 50 -7 78 -15 81 -10 3 -13 -12 -13 -54 l0 -57 -42 56
c-24 31 -49 57 -55 57 -9 0 -13 -23 -13 -80z"/>
<path d="M3124 1878 c-47 -22 -56 -86 -19 -123 52 -53 135 -18 135 57 0 60
-59 94 -116 66z m56 -18 c48 -26 45 -93 -5 -106 -56 -14 -90 67 -43 100 27 19
24 19 48 6z"/>
<path d="M3370 1810 c0 -47 4 -80 10 -80 6 0 10 33 10 80 0 47 -4 80 -10 80
-6 0 -10 -33 -10 -80z"/>
<path d="M3437 1884 c-10 -11 3 -24 24 -24 17 0 19 -7 19 -65 0 -51 3 -65 15
-65 12 0 15 14 15 65 0 63 1 65 25 65 16 0 25 6 25 15 0 12 -13 15 -58 15 -32
0 -62 -3 -65 -6z"/>
<path d="M3600 1810 l0 -80 55 0 c65 0 74 17 13 22 -35 2 -43 7 -43 23 0 16 8
21 38 23 48 4 48 20 0 24 -27 2 -39 8 -41 21 -3 14 4 17 42 17 34 0 46 4 46
15 0 12 -13 15 -55 15 l-55 0 0 -80z"/>
<path d="M3760 1810 c0 -91 17 -109 22 -22 l3 57 24 -38 24 -39 21 34 21 33 3
-52 c2 -38 7 -53 18 -53 11 0 14 17 14 80 0 92 -14 104 -50 45 -12 -19 -25
-35 -28 -35 -4 0 -17 16 -30 35 -12 19 -27 35 -32 35 -6 0 -10 -34 -10 -80z"/>
<path d="M3978 1880 c-21 -13 -24 -53 -5 -67 6 -6 25 -13 40 -17 20 -5 27 -12
25 -24 -3 -16 -35 -22 -64 -11 -7 2 -13 0 -15 -6 -4 -15 44 -29 74 -21 47 11
46 71 -2 82 -29 7 -51 22 -51 34 0 14 31 20 50 10 17 -9 40 4 28 16 -11 10
-65 13 -80 4z"/>
<path d="M4190 1811 c0 -66 3 -81 15 -81 13 0 15 13 13 77 -2 50 -7 78 -15 81
-10 3 -13 -17 -13 -77z"/>
<path d="M4270 1810 c0 -91 17 -109 22 -23 l3 57 44 -57 c24 -31 47 -57 52
-57 5 0 9 36 9 80 0 90 -17 110 -22 25 l-3 -55 -42 55 c-24 30 -47 55 -53 55
-6 0 -10 -33 -10 -80z"/>
<path d="M4562 1874 c-13 -9 -27 -27 -32 -40 -11 -29 5 -81 30 -94 28 -15 76
-12 90 5 17 21 6 29 -20 15 -42 -23 -88 17 -76 66 9 33 38 47 72 34 33 -13 46
-3 20 16 -26 18 -56 18 -84 -2z"/>
<path d="M4730 1815 c-32 -73 -33 -113 -3 -67 21 30 82 32 90 2 3 -11 12 -20
20 -20 8 0 13 6 10 13 -40 102 -63 147 -72 147 -7 0 -27 -34 -45 -75z m70 -17
c0 -5 -11 -8 -25 -8 -29 0 -29 -1 -14 37 l11 28 13 -25 c8 -14 14 -28 15 -32z"/>
<path d="M4890 1810 c0 -64 3 -80 15 -80 10 0 15 10 15 30 0 19 5 30 14 30 8
0 24 -13 36 -30 12 -16 28 -30 37 -30 12 0 11 5 -5 27 -19 27 -19 27 0 53 33
46 0 80 -78 80 l-34 0 0 -80z m95 25 c0 -15 -8 -21 -32 -23 -30 -3 -33 -1 -33
23 0 24 3 26 33 23 24 -2 32 -8 32 -23z"/>
<path d="M5057 1884 c-10 -11 3 -24 24 -24 17 0 19 -7 19 -65 0 -51 3 -65 15
-65 12 0 15 14 15 65 0 63 1 65 25 65 16 0 25 6 25 15 0 12 -13 15 -58 15 -32
0 -62 -3 -65 -6z"/>
</g>
</svg>
