 <svg
                width="128"
                height="32"
                viewBox="0 0 128 32"
                fill="none"
                xmlns="http://www.w3.org/2000/svg"
              >
                <path
                  d="M64.9512 11.3389H58.0957V14.0898H64.3887V16.3398H58.0957V19.6709H65.2676V22H55.4502V9.04492H64.9512V11.3389ZM66.4189 15.7949H71.4639V18.168H66.4189V15.7949ZM75.3311 18.001C75.4131 18.5928 75.5742 19.0352 75.8145 19.3281C76.2539 19.8613 77.0068 20.1279 78.0732 20.1279C78.7119 20.1279 79.2305 20.0576 79.6289 19.917C80.3848 19.6475 80.7627 19.1465 80.7627 18.4141C80.7627 17.9863 80.5752 17.6553 80.2002 17.4209C79.8252 17.1924 79.2363 16.9902 78.4336 16.8145L77.0625 16.5068C75.7148 16.2021 74.7832 15.8711 74.2676 15.5137C73.3945 14.916 72.958 13.9814 72.958 12.71C72.958 11.5498 73.3799 10.5859 74.2236 9.81836C75.0674 9.05078 76.3066 8.66699 77.9414 8.66699C79.3066 8.66699 80.4697 9.03027 81.4307 9.75684C82.3975 10.4775 82.9043 11.5264 82.9512 12.9033H80.3496C80.3027 12.124 79.9629 11.5703 79.3301 11.2422C78.9082 11.0254 78.3838 10.917 77.7568 10.917C77.0596 10.917 76.5029 11.0576 76.0869 11.3389C75.6709 11.6201 75.4629 12.0127 75.4629 12.5166C75.4629 12.9795 75.668 13.3252 76.0781 13.5537C76.3418 13.7061 76.9043 13.8848 77.7656 14.0898L79.998 14.626C80.9766 14.8604 81.7148 15.1738 82.2129 15.5664C82.9863 16.1758 83.373 17.0576 83.373 18.2119C83.373 19.3955 82.9189 20.3799 82.0107 21.165C81.1084 21.9443 79.8311 22.334 78.1787 22.334C76.4912 22.334 75.1641 21.9502 74.1973 21.1826C73.2305 20.4092 72.7471 19.3486 72.7471 18.001H75.3311ZM90.457 12.1738C91.0488 12.1738 91.585 12.2764 92.0654 12.4814C92.5518 12.6865 92.9502 13 93.2607 13.4219C93.5244 13.7793 93.6855 14.1484 93.7441 14.5293C93.8027 14.9043 93.832 15.5195 93.832 16.375V22H91.2744V16.1729C91.2744 15.6572 91.1865 15.2412 91.0107 14.9248C90.7822 14.4795 90.3486 14.2568 89.71 14.2568C89.0479 14.2568 88.5439 14.4795 88.1982 14.9248C87.8584 15.3643 87.6885 15.9941 87.6885 16.8145V22H85.1924V9.08887H87.6885V13.668C88.0518 13.1113 88.4707 12.7246 88.9453 12.5078C89.4258 12.2852 89.9297 12.1738 90.457 12.1738ZM100.477 20.2334C101.209 20.2334 101.771 19.9727 102.164 19.4512C102.557 18.9297 102.753 18.1885 102.753 17.2275C102.753 16.2666 102.557 15.5283 102.164 15.0127C101.771 14.4912 101.209 14.2305 100.477 14.2305C99.7441 14.2305 99.1787 14.4912 98.7803 15.0127C98.3877 15.5283 98.1914 16.2666 98.1914 17.2275C98.1914 18.1885 98.3877 18.9297 98.7803 19.4512C99.1787 19.9727 99.7441 20.2334 100.477 20.2334ZM105.381 17.2275C105.381 18.6338 104.977 19.8379 104.168 20.8398C103.359 21.8359 102.132 22.334 100.485 22.334C98.8389 22.334 97.6113 21.8359 96.8027 20.8398C95.9941 19.8379 95.5898 18.6338 95.5898 17.2275C95.5898 15.8447 95.9941 14.6465 96.8027 13.6328C97.6113 12.6191 98.8389 12.1123 100.485 12.1123C102.132 12.1123 103.359 12.6191 104.168 13.6328C104.977 14.6465 105.381 15.8447 105.381 17.2275ZM113.783 17.21C113.783 16.4717 113.613 15.8184 113.273 15.25C112.939 14.6816 112.395 14.3975 111.639 14.3975C110.73 14.3975 110.106 14.8281 109.767 15.6895C109.591 16.1465 109.503 16.7266 109.503 17.4297C109.503 18.543 109.799 19.3252 110.391 19.7764C110.742 20.04 111.158 20.1719 111.639 20.1719C112.336 20.1719 112.866 19.9023 113.229 19.3633C113.599 18.8242 113.783 18.1064 113.783 17.21ZM112.359 12.209C113.479 12.209 114.425 12.6221 115.198 13.4482C115.978 14.2744 116.367 15.4873 116.367 17.0869C116.367 18.7744 115.986 20.0605 115.225 20.9453C114.469 21.8301 113.493 22.2725 112.298 22.2725C111.536 22.2725 110.903 22.082 110.399 21.7012C110.124 21.4902 109.854 21.1826 109.591 20.7783V25.7705H107.112V12.4199H109.512V13.835C109.781 13.4189 110.068 13.0908 110.373 12.8506C110.93 12.4229 111.592 12.209 112.359 12.209Z"
                  fill="#333333"
                />
                <path
                  d="M17.8842 31.9994C17.6521 32.0076 17.4235 31.9356 17.2303 31.7935C17.0371 31.6514 16.889 31.4462 16.8068 31.2067L14.105 23.3842H2.22941C1.9365 23.3842 1.64647 23.3205 1.37587 23.1968C1.10528 23.0731 0.859431 22.8918 0.652389 22.6633C0.445348 22.4347 0.281172 22.1633 0.169231 21.8647C0.0572903 21.5662 -0.000217161 21.2462 6.16218e-07 20.923V2.46121C-0.000110122 2.13735 0.0577456 1.81667 0.170243 1.51753C0.28274 1.21839 0.447678 0.946688 0.655576 0.718024C0.863475 0.48936 1.11024 0.308212 1.38174 0.184999C1.65324 0.0617854 1.94413 -0.0010694 2.23771 1.37646e-05H17.8543C18.066 4.00622e-06 18.2734 0.066439 18.4521 0.191584C18.6309 0.316728 18.7737 0.495424 18.8638 0.706752L22.2369 8.61516H35.7062C35.9991 8.61516 36.2892 8.67883 36.5597 8.80254C36.8303 8.92625 37.0762 9.10756 37.2832 9.33613C37.4903 9.56469 37.6544 9.83603 37.7664 10.1346C37.8783 10.4332 37.9358 10.7532 37.9356 11.0764V29.5373C37.9357 29.8611 37.8779 30.1818 37.7654 30.481C37.6529 30.7801 37.4879 31.0518 37.28 31.2804C37.0721 31.5091 36.8254 31.6902 36.5539 31.8135C36.2824 31.9367 35.9915 31.9995 35.6979 31.9984L17.8842 31.9994ZM17.1424 2.46121H2.23771C2.23771 2.46121 2.23771 8.61516 2.23771 20.9221H25.0241L17.1424 2.46121ZM23.2837 11.0764L27.7856 21.6288C27.8887 21.8707 27.9176 22.143 27.868 22.4046C27.8183 22.6662 27.6928 22.9029 27.5104 23.0789L20.8197 29.5373H35.6979C35.6979 29.5373 35.6979 23.3833 35.6979 11.0764H23.2837ZM18.3226 28.6769L23.8066 23.3833H16.4927L18.3226 28.6769Z"
                  fill="#333333"
                />
              </svg>